<svg xmlns="http://www.w3.org/2000/svg" viewBox="0 0 110 84" width="110" height="84">
  <rect x="2" y="30" width="19" height="6" rx="3" fill="#F2A900"/>
  <rect x="0" y="41" width="24" height="6" rx="3" fill="#F2A900"/>
  <rect x="3" y="52" width="16" height="6" rx="3" fill="#F2A900"/>
  <g transform="translate(36,2) rotate(-12 26 66)">
    <path d="M14 12 H26 Q31 12 31 17 V58 H62" fill="none" stroke="#232B32" stroke-width="7" stroke-linecap="round" stroke-linejoin="round"/>
    <circle cx="34" cy="69" r="6.5" fill="none" stroke="#232B32" stroke-width="5"/>
    <rect x="38.5" y="4" width="13" height="28" rx="6" fill="#232B32" transform="rotate(7 45 18)"/>
    <rect x="35.5" y="38" width="28" height="10" rx="5" fill="#232B32"/>
    <path d="M58.5 38 V30 Q58.5 26 62.5 26 H69" fill="none" stroke="#232B32" stroke-width="5.5" stroke-linecap="round"/>
    <rect x="47" y="50" width="6" height="5" fill="#232B32"/>
    <rect x="37.5" y="55" width="25" height="5" rx="2.5" fill="#232B32"/>
    <circle cx="41.5" cy="63" r="3.9" fill="#232B32"/>
    <circle cx="58.5" cy="63" r="3.9" fill="#232B32"/>
  </g>
</svg>
